<svg xmlns="http://www.w3.org/2000/svg" viewBox="0 0 143.74 195.83"><defs><style>.cls-1{fill:#9ee7f7;}.cls-2{fill:#f1f1f2;}.cls-3{fill:#d1d3d4;}.cls-4{fill:#bcbdc0;}</style></defs><title>Ресурс 15</title><g id="Слой_2" data-name="Слой 2"><g id="Слой_2-2" data-name="Слой 2"><rect class="cls-1" y="6.19" width="143.74" height="189.64" rx="5.33" ry="5.33"/><rect class="cls-2" x="13.09" y="20.89" width="117.57" height="160.25" rx="2.33" ry="2.33"/><rect class="cls-3" x="56.27" width="31.2" height="33.67" rx="2.28" ry="2.28"/><rect class="cls-3" x="28.59" y="15.1" width="86.56" height="18.57" rx="6.5" ry="6.5"/><path class="cls-4" d="M108.81,39.11H34.93c-3.5,0-6.34-2.46-6.34-5.49v-8.1h86.56v8.1C115.15,36.65,112.31,39.11,108.81,39.11Z"/><path class="cls-3" d="M35.09,15.1h73.56a6.5,6.5,0,0,1,6.5,6.5V33.67a0,0,0,0,1,0,0H28.59a0,0,0,0,1,0,0V21.6A6.5,6.5,0,0,1,35.09,15.1Z"/><path class="cls-3" d="M102.79,15.1c-1.21.07-9.54.44-13.88-5.36A11.8,11.8,0,0,1,87.1,6.19V15.7Z"/><path class="cls-3" d="M40.58,15.1c1.21.07,9.54.44,13.88-5.36a11.8,11.8,0,0,0,1.81-3.55V15.7Z"/><rect class="cls-3" x="24.16" y="54.4" width="19.13" height="19.13"/><rect class="cls-3" x="50.73" y="54.4" width="68.65" height="4.43"/><rect class="cls-3" x="50.73" y="61.85" width="42.88" height="4.43"/><rect class="cls-3" x="24.16" y="81.88" width="19.13" height="19.13"/><rect class="cls-3" x="50.73" y="81.78" width="68.65" height="4.43"/><rect class="cls-3" x="50.73" y="89.23" width="56.57" height="4.43"/><rect class="cls-3" x="24.36" y="137.85" width="19.13" height="19.13"/><rect class="cls-3" x="50.93" y="137.75" width="68.65" height="4.43"/><rect class="cls-3" x="50.93" y="145.2" width="48.83" height="4.43"/><rect class="cls-1" x="24.16" y="109.86" width="19.13" height="19.13"/><rect class="cls-1" x="50.73" y="109.76" width="68.65" height="4.43"/><rect class="cls-1" x="50.73" y="117.21" width="34.76" height="4.43"/></g></g></svg>