<svg xmlns="http://www.w3.org/2000/svg" viewBox="0 0 127.03 83.47"><defs><style>.cls-1{fill:#f37e58;}.cls-2{fill:#e15b49;}.cls-3{fill:#fff;}</style></defs><title>chat</title><g id="Слой_2" data-name="Слой 2"><g id="Слой_2-2" data-name="Слой 2"><rect class="cls-1" x="72.29" y="33.31" width="54.74" height="40.1" rx="20.05" ry="20.05"/><path class="cls-2" d="M63.08,57.54h3.28c.37,0,.74,0,1.11,0a.77.77,0,0,0,.65-1,22,22,0,0,1-.44-4.33V49.57c0-11.49,8.58-20.8,19.16-20.8h3a.75.75,0,0,0,.71-.78V26.27C90.56,11.76,79.73,0,66.36,0H24.2C10.83,0,0,11.76,0,26.27v5C0,45.78,10.83,57.54,24.2,57.54Z"/><path class="cls-1" d="M86.12,71.35l13,12.06c.17.17.44,0,.35-.27L94.74,70.23a.24.24,0,0,0-.24-.15l-9.33,1.3"/><polyline class="cls-2" points="45.88 48.94 52.03 43.02 58.03 57.25"/><path class="cls-2" d="M40.51,54l-6,22.11a.29.29,0,0,0,.48.29L53.38,54.18a.32.32,0,0,0,0-.4L45.73,43.53a.27.27,0,0,0-.47.06L40.53,54S40.51,54,40.51,54Z"/><polyline class="cls-2" points="34.97 76.41 58.03 54.97 49.55 52.9 44.65 60.58"/><ellipse class="cls-3" cx="24.75" cy="28.77" rx="5.84" ry="5.55"/><ellipse class="cls-3" cx="63.19" cy="28.77" rx="5.84" ry="5.55"/><ellipse class="cls-3" cx="44.01" cy="28.77" rx="5.84" ry="5.55"/></g></g></svg>