<svg xmlns="http://www.w3.org/2000/svg" viewBox="0 0 142.45 78.83"><defs><style>.cls-1{fill:#bae4ef;}.cls-2{fill:#29bbcc;}.cls-3{fill:#f37e58;}.cls-4{fill:#e15b49;}</style></defs><title>dudes_cut</title><g id="Слой_2" data-name="Слой 2"><g id="Слой_2-2" data-name="Слой 2"><path class="cls-1" d="M142.23,78.83a6.83,6.83,0,0,0,.17-1.5c0-8.17-14.72-14.8-32.89-14.8s-32.88,6.63-32.88,14.8a6.82,6.82,0,0,0,.16,1.5Z"/><path class="cls-2" d="M115.46,78.83a9.59,9.59,0,0,0,.17-1.69c0-11.09-20-20.08-44.64-20.08s-44.63,9-44.63,20.08a8.73,8.73,0,0,0,.17,1.69Z"/><rect class="cls-1" x="19.19" y="35.1" width="27.49" height="9.18"/><circle class="cls-1" cx="32.93" cy="44.29" r="13.75"/><polygon class="cls-3" points="4.83 30.54 32.89 37.41 32.89 20.49 4.83 30.54"/><polygon class="cls-3" points="60.71 30.54 32.65 37.41 32.65 20.49 60.71 30.54"/><path class="cls-3" d="M46.4,37.41h.28V30.54H19.19v6.87c6.92,0,12.65,2.27,13.6,5.21C33.74,39.68,39.47,37.41,46.4,37.41Z"/><rect class="cls-1" x="95.81" y="35.1" width="27.49" height="9.18"/><circle class="cls-1" cx="109.56" cy="44.29" r="13.75"/><polygon class="cls-3" points="81.45 30.54 109.51 37.41 109.51 20.49 81.45 30.54"/><polygon class="cls-3" points="137.33 30.54 109.28 37.41 109.28 20.49 137.33 30.54"/><path class="cls-3" d="M123,37.41h.28V30.54H95.81v6.87c6.93,0,12.65,2.27,13.61,5.21C110.37,39.68,116.1,37.41,123,37.41Z"/><rect class="cls-2" x="52.4" y="19.83" width="37.31" height="12.46"/><circle class="cls-2" cx="71.05" cy="32.29" r="18.66"/><polygon class="cls-4" points="32.91 13.64 70.99 22.96 70.99 0 32.91 13.64"/><polygon class="cls-4" points="108.75 13.64 70.67 22.96 70.67 0 108.75 13.64"/><path class="cls-4" d="M89.33,23h.38V13.64H52.4V23C61.8,23,69.57,26,70.86,30,72.16,26,79.93,23,89.33,23Z"/><path class="cls-3" d="M142.28,78.83a6.83,6.83,0,0,0,.17-1.5c0-5.85-7.54-10.9-18.49-13.31L110.11,78.61l-14-14.78c-11.44,2.32-19.41,7.49-19.41,13.5a6.83,6.83,0,0,0,.17,1.5Z"/><path class="cls-1" d="M65.61,78.83a6.83,6.83,0,0,0,.17-1.5c0-8.17-14.73-14.8-32.89-14.8S0,69.16,0,77.33a6.83,6.83,0,0,0,.17,1.5Z"/><path class="cls-3" d="M65.65,78.83a6.83,6.83,0,0,0,.17-1.5c0-5.85-7.55-10.9-18.5-13.31L33.46,78.61l-14-14.78C8,66.15,0,71.32,0,77.33a6.83,6.83,0,0,0,.17,1.5Z"/><path class="cls-4" d="M115.52,78.83a9.59,9.59,0,0,0,.17-1.69c0-7.94-10.24-14.8-25.1-18.06L71.82,78.83Z"/><path class="cls-4" d="M71.73,78.83l-19-20C37.18,62,26.36,69,26.36,77.14a8.73,8.73,0,0,0,.17,1.69Z"/></g></g></svg>