<svg xmlns="http://www.w3.org/2000/svg" viewBox="0 0 211.61 49.36"><defs><style>.cls-1{fill:#404040;}.cls-2{fill:none;}</style></defs><title>improve_medium</title><g id="Слой_2" data-name="Слой 2"><g id="Слой_2-2" data-name="Слой 2"><rect class="cls-1" y="24.39" width="8.17" height="24.56"/><rect class="cls-1" x="23" y="16.14" width="7.92" height="32.82"/><rect class="cls-1" x="44.5" y="7.84" width="8.5" height="41.52"/><line class="cls-2" x1="30.92" y1="16.14" x2="37.21" y2="32.84"/><polygon class="cls-1" points="40.6 41.42 30.92 16.14 30.92 33.02 34.14 41.42 40.6 41.42"/><polygon class="cls-1" points="34.17 41.42 44.5 7.84 44.5 28.78 40.63 41.42 34.17 41.42"/><rect class="cls-1" x="67.88" width="7.88" height="48.99"/><path class="cls-1" d="M84,0H67.87V31.14H84c4.34,0,7.85-2.89,7.85-6.46V6.46C91.87,2.89,88.36,0,84,0Zm0,22.92a2.7,2.7,0,0,1-2.92,2.4H75.75V5.86h5.37A2.69,2.69,0,0,1,84,8.26Z"/><rect class="cls-1" x="98.79" width="7.88" height="48.99"/><path class="cls-1" d="M114.94,0H98.79V31.14h16.15c4.34,0,7.85-2.89,7.85-6.46V6.46C122.79,2.89,119.28,0,114.94,0Zm0,22.92a2.7,2.7,0,0,1-2.92,2.4h-5.37V5.86H112A2.7,2.7,0,0,1,115,8.26Z"/><polygon class="cls-1" points="124.04 48.99 116.41 48.99 111.04 28.19 118.21 28.02 124.04 48.99"/><path class="cls-1" d="M147.79,0H137.54c-4.52,0-8.19,3-8.19,6.73V42.26C129.35,46,133,49,137.54,49h10.25c4.52,0,8.19-3,8.19-6.73V6.73C156,3,152.31,0,147.79,0ZM148,40.57a2.8,2.8,0,0,1-3,2.49h-4.75a2.8,2.8,0,0,1-3-2.49V8.35a2.8,2.8,0,0,1,3-2.49H145a2.8,2.8,0,0,1,3,2.49Z"/><polygon class="cls-1" points="175.73 48.99 169.1 48.99 159.35 0 167.29 0 175.73 48.99"/><polygon class="cls-1" points="171.92 48.99 178.54 48.99 188.29 0 180.35 0 171.92 48.99"/><rect class="cls-1" x="191.97" width="7.83" height="48.99"/><rect class="cls-1" x="191.97" width="19.64" height="5.86"/><rect class="cls-1" x="191.97" y="43.06" width="19.64" height="5.86"/><rect class="cls-1" x="191.97" y="20.75" width="18.36" height="5.86"/></g></g></svg>