<svg xmlns="http://www.w3.org/2000/svg" viewBox="0 0 120.9 145.02"><defs><style>.cls-1{fill:#f6d3a7;}.cls-2{fill:#fff;}.cls-3{fill:#e15b49;}.cls-4{fill:#f2f2f4;}.cls-5{fill:#c64b3b;}.cls-6{fill:#fdfffe;}.cls-7{fill:#f8ead6;}.cls-8{fill:#f37e58;}</style></defs><title>rutor</title><g id="Слой_2" data-name="Слой 2"><g id="Слой_2-2" data-name="Слой 2"><path class="cls-1" d="M94.27,121.72l-28.33-6,3.15-14.91c5.35-3,10.48-3.61,12.93-2.43a23.55,23.55,0,0,1,3.08,2.06c1.29,1,1.82,1.53,2.1,2.32a3.65,3.65,0,0,1,.19,1.51,6.28,6.28,0,0,0,.85,2.8c1.17,2,3.05,2.44,4.11,3.17C93.93,111.34,95.34,114.11,94.27,121.72Z"/><path class="cls-2" d="M68.69,64.87l-44-18.41,17.13-41c2,7.64,6.34,19.74,15.65,28.68A50,50,0,0,0,69,42a61.94,61.94,0,0,0,8,3.48Z"/><path class="cls-3" d="M72.05,90.55c0,.11.09.27.13.74a3.4,3.4,0,0,1-.61,2.17c-2.54,2.61-4.66,4.92-6.31,6.78a84.2,84.2,0,0,0-8.18,11.84,3.72,3.72,0,0,0-.67,2.13,3.36,3.36,0,0,0,.67,1.77,24.3,24.3,0,0,0,3,2.83,26.46,26.46,0,0,0,2.24,1.6c1.21.79,2.27,1.34,3.32,1.91,2,1.07,2.95,1.39,4,1.19a4.28,4.28,0,0,0,2.09-1.09L73,120.31l2-4.21A101.22,101.22,0,0,1,86,98.18c.35-.44.69-.89,1-1.32C75.6,91.29,72.29,90.14,72.05,90.55Z"/><rect class="cls-3" x="17.83" y="-3.74" width="6.65" height="95.47" rx="3.32" ry="3.32" transform="translate(19.44 -4.79) rotate(23.67)"/><path class="cls-2" d="M17.38,33.05a8.48,8.48,0,0,0-1.29-.71A8.65,8.65,0,1,0,9.15,48.18a7.81,7.81,0,0,0,1.39.46Z"/><path class="cls-2" d="M67.9,64.49,24.2,45.33,6.37,86C13.31,82.2,25,77,37.92,77.54a51.85,51.85,0,0,1,13.61,3,68.19,68.19,0,0,1,8,3.2Z"/><path class="cls-4" d="M76.71,45.25,6.37,86,42,4.66c1.9,7.68,6,19.85,15.15,28.94a50.32,50.32,0,0,0,11.41,8c1.32.72,2.78,1.45,4.35,2.15C74.25,44.32,75.51,44.82,76.71,45.25Z"/><path class="cls-3" d="M68.44,50.43H94.2A12.54,12.54,0,0,1,106.74,63V82.3A12.54,12.54,0,0,1,94.2,94.84H68.44a2.23,2.23,0,0,1-2.23-2.23v-40a2.23,2.23,0,0,1,2.23-2.23Z" transform="translate(36.43 -28.61) rotate(23.67)"/><path class="cls-5" d="M86.57,96.82c-2.75-.68-9.3-3.88-12.76-5.27-.71-.28-11.45-4.57-13.16-6a2.88,2.88,0,0,1-.82-1.16,2.61,2.61,0,0,1,0-1.51Q67.92,64.5,76,46.1a3,3,0,0,1,.39-.53,2.14,2.14,0,0,1,.34-.32,2,2,0,0,1,.45-.22q4.29,13.5,8.93,27.3,4.08,12.14,8.24,23.9a8.72,8.72,0,0,1-.93.32,12.91,12.91,0,0,1-2.06.41,14.93,14.93,0,0,1-2.56.19A11.91,11.91,0,0,1,86.57,96.82Z"/><ellipse class="cls-1" cx="65.35" cy="95.36" rx="2.34" ry="2.29" transform="translate(-49.32 110.08) rotate(-62.9)"/><rect class="cls-1" x="64.76" y="94.32" width="6.24" height="4.67" transform="translate(51.49 -20.31) rotate(27.1)"/><ellipse class="cls-1" cx="70.9" cy="98.2" rx="2.34" ry="2.29" transform="translate(-48.82 116.58) rotate(-62.9)"/><ellipse class="cls-1" cx="62.11" cy="99.07" rx="2.42" ry="2.29" transform="translate(-54.31 110.01) rotate(-63.28)"/><rect class="cls-1" x="61.53" y="97.93" width="6.24" height="4.83" transform="translate(52.02 -18.35) rotate(26.72)"/><ellipse class="cls-1" cx="67.68" cy="101.87" rx="2.42" ry="2.29" transform="translate(-53.74 116.53) rotate(-63.28)"/><ellipse class="cls-1" cx="76.92" cy="98.43" rx="3" ry="2.82" transform="translate(-47.51 109.44) rotate(-57.05)"/><polygon class="cls-1" points="80.99 104.85 75.17 100.84 78.53 95.89 84.35 99.9 80.99 104.85"/><ellipse class="cls-1" cx="82.93" cy="102.56" rx="3" ry="2.59" transform="translate(-48.24 116.37) rotate(-57.05)"/><ellipse class="cls-1" cx="60.49" cy="103.26" rx="2.21" ry="2.02" transform="translate(-58.97 110.37) rotate(-63.05)"/><rect class="cls-1" x="59.97" y="102.19" width="5.52" height="4.4" transform="translate(54.14 -17.09) rotate(26.95)"/><ellipse class="cls-1" cx="65.4" cy="105.76" rx="2.21" ry="2.02" transform="translate(-58.51 116.12) rotate(-63.05)"/><ellipse class="cls-1" cx="59.26" cy="107.52" rx="2.06" ry="1.94" transform="translate(-63.43 111.96) rotate(-63.21)"/><rect class="cls-1" x="59" y="106.55" width="4.8" height="4.1" transform="translate(55.54 -16.01) rotate(26.79)"/><ellipse class="cls-1" cx="63.75" cy="109.79" rx="2.06" ry="1.94" transform="translate(-62.99 117.22) rotate(-63.21)"/><rect class="cls-6" x="84.86" y="107.87" width="7.73" height="15.4" transform="translate(69.69 -28.88) rotate(30.01)"/><path class="cls-7" d="M69.23,97.29a1.79,1.79,0,0,1,2.44-.66l-1.78,3.09A1.77,1.77,0,0,1,69.23,97.29Z"/><path class="cls-7" d="M70.71,96.67h.93a.16.16,0,0,1,.16.16v3.25a.16.16,0,0,1-.16.16h-.93a0,0,0,0,1,0,0V96.67A0,0,0,0,1,70.71,96.67Z" transform="translate(58.78 -22.44) rotate(30.01)"/><path class="cls-7" d="M66,101a1.81,1.81,0,0,1,2.47-.66l-1.81,3.13A1.81,1.81,0,0,1,66,101Z"/><path class="cls-7" d="M67.46,100.33h.93a.16.16,0,0,1,.16.16v3.29a.16.16,0,0,1-.16.16h-.93a0,0,0,0,1,0,0v-3.61a0,0,0,0,1,0,0Z" transform="translate(60.19 -20.32) rotate(30.01)"/><path class="cls-7" d="M63.62,104.75a1.69,1.69,0,0,1,2.3-.62l-1.68,2.92A1.68,1.68,0,0,1,63.62,104.75Z"/><path class="cls-7" d="M65,104.16h.85a.16.16,0,0,1,.16.16v3.05a.16.16,0,0,1-.16.16H65a0,0,0,0,1,0,0v-3.37a0,0,0,0,1,0,0Z" transform="translate(61.71 -18.58) rotate(30.01)"/><path class="cls-7" d="M62,108.93a1.57,1.57,0,0,1,2.13-.57l-1.56,2.7A1.56,1.56,0,0,1,62,108.93Z"/><path class="cls-7" d="M63.33,108.39h.78a.16.16,0,0,1,.16.16v2.8a.16.16,0,0,1-.16.16h-.78a0,0,0,0,1,0,0v-3.12A0,0,0,0,1,63.33,108.39Z" transform="translate(63.53 -17.17) rotate(30.01)"/><path class="cls-7" d="M78.5,99.3a2.14,2.14,0,0,0-.78-2.92l-2.13,3.69A2.13,2.13,0,0,0,78.5,99.3Z"/><path class="cls-7" d="M75.44,95.77H76.5a.25.25,0,0,1,.25.25v3.77a.25.25,0,0,1-.25.25H75.44a0,0,0,0,1,0,0V95.77A0,0,0,0,1,75.44,95.77Z" transform="matrix(-0.87, -0.5, 0.5, -0.87, 93.02, 220.74)"/><circle class="cls-2" cx="94.42" cy="112.01" r="1.63"/><path class="cls-8" d="M120.9,123.42l-29-16.26-8.76,15.17L120.9,145Z"/></g></g></svg>