<svg xmlns="http://www.w3.org/2000/svg" viewBox="0 0 166.14 175.61"><defs><style>.cls-1{fill:#e15b49;}.cls-2{fill:#c64b3b;}.cls-3{fill:#2f2f2f;}.cls-4{fill:#424242;}</style></defs><title>Ресурс 17</title><g id="Слой_2" data-name="Слой 2"><g id="Слой_2-2" data-name="Слой 2"><path class="cls-1" d="M6,35.58,17,11.47a.55.55,0,0,0-.5-.78H.67a.67.67,0,0,0-.67.67V175.61L29,62.83a6.17,6.17,0,0,0-1.61-5.89Z"/><path class="cls-2" d="M0,35.58H5.83a.31.31,0,0,0,.29-.19l11-24.25a.32.32,0,0,0-.3-.45H0"/><path class="cls-3" d="M166.14,175.61,147.35,57.45a18.27,18.27,0,0,0-8.88-12.94L61.69,0,17.33,175.61"/><polyline class="cls-4" points="61.72 0 17.33 175.61 90.4 47.57"/></g></g></svg>