<svg xmlns="http://www.w3.org/2000/svg" viewBox="0 0 122.98 108.42"><defs><style>.cls-1{fill:#c64b3b;}.cls-2{fill:#e15b49;}.cls-3{fill:#fff;}</style></defs><title>bag</title><g id="Слой_2" data-name="Слой 2"><g id="Слой_2-2" data-name="Слой 2"><rect class="cls-1" x="2.59" y="45.69" width="118.04" height="62.73" rx="8.17" ry="8.17"/><rect class="cls-2" y="15.41" width="122.98" height="51.91" rx="7.17" ry="7.17"/><rect class="cls-3" x="51.27" y="56.98" width="20.69" height="20.69" rx="3.66" ry="3.66"/><rect class="cls-2" x="34.03" y="9.73" width="9.73" height="11.36"/><rect class="cls-2" x="79.46" y="9.73" width="9.73" height="11.36"/><rect class="cls-1" x="43.77" width="35.69" height="9.73"/><path class="cls-2" d="M43.77,9.73H34L43.77,0Z"/><path class="cls-2" d="M79.46,9.73h9.73L79.46,0Z"/><rect class="cls-2" x="34.09" y="9.67" width="9.67" height="0.06"/><rect class="cls-2" x="79.49" y="9.7" width="9.67" height="0.06"/><rect class="cls-2" x="74.62" y="4.87" width="9.67" height="0.06" transform="translate(74.56 84.36) rotate(-90)"/><rect class="cls-2" x="38.92" y="4.87" width="9.67" height="0.06" transform="translate(38.86 48.66) rotate(-90)"/></g></g></svg>